<?xml version="1.0" standalone="no"?>
<!DOCTYPE svg PUBLIC "-//W3C//DTD SVG 20010904//EN"
 "http://www.w3.org/TR/2001/REC-SVG-20010904/DTD/svg10.dtd">
<svg version="1.0" xmlns="http://www.w3.org/2000/svg"
 width="270.000000pt" height="270.000000pt" viewBox="0 0 270.000000 270.000000"
 preserveAspectRatio="xMidYMid meet">
<metadata>
Created by potrace 1.11, written by Peter Selinger 2001-2013
</metadata>
<g transform="translate(0.000000,270.000000) scale(0.100000,-0.100000)"
fill="#000000" stroke="none">
<path d="M728 1833 c-75 -76 -210 -211 -301 -301 -90 -89 -172 -171 -181 -181
-16 -18 -10 -25 134 -167 83 -82 228 -226 322 -321 l171 -171 85 85 85 85
-236 235 -236 236 219 219 c121 120 220 223 220 228 0 6 7 10 15 10 8 0 15 4
15 9 0 10 -159 171 -169 171 -4 0 -68 -62 -143 -137z"/>
<path d="M1763 1887 l-83 -83 235 -234 c129 -128 233 -235 232 -236 -1 -2
-107 -109 -235 -238 l-234 -234 79 -79 c43 -43 82 -80 87 -82 4 -2 152 140
328 314 l319 317 -23 25 c-13 14 -56 57 -96 97 -40 39 -174 171 -296 294 -123
122 -225 222 -227 222 -2 0 -41 -37 -86 -83z"/>
</g>
</svg>
